<?xml version="1.0" encoding="iso-8859-1"?>
<!-- Generator: Adobe Illustrator 16.0.0, SVG Export Plug-In . SVG Version: 6.00 Build 0)  -->
<!DOCTYPE svg PUBLIC "-//W3C//DTD SVG 1.1//EN" "http://www.w3.org/Graphics/SVG/1.1/DTD/svg11.dtd">
<svg version="1.1" id="Capa_1" xmlns="http://www.w3.org/2000/svg" xmlns:xlink="http://www.w3.org/1999/xlink" x="0px" y="0px"
	 width="490.985px" height="490.985px" viewBox="0 0 490.985 490.985" style="enable-background:new 0 0 490.985 490.985;"
	 xml:space="preserve">
<g>
	<g>
		<path d="M360.601,207.004c0.289-6.129,0.538-12.256,0.903-18.385c0.203-3.641-0.929-6.419-2.752-8.43
			c-6.642-16.724-25.801-27.061-41.711-33.174c-36.957-14.218-78.317-16.075-117.476-15.143c-1.711,0.041-3.204,0.394-4.573,0.889
			c-33.101-1.072-67.836,0.274-98.833,12.106c-17.813,6.799-38.204,20.705-36.473,42.34c0.282,3.507,1.13,6.762,2.346,9.818
			c4.882,77.008-0.218,154.04-1.696,231.094c-0.8,2.229-0.815,4.885,0.406,7.886c30.592,74.809,240.318,68.208,293.215,10.694
			c2.072-2.26,3.134-4.723,3.402-7.159c1.777-2.006,2.92-4.697,2.864-8.182c-0.386-23.912-0.833-47.829-1.178-71.741
			c40.329-7.744,73.107-36.562,72.341-79.815C430.682,239.082,396.877,214.431,360.601,207.004z M90.478,179.665
			c5.621-5.893,14.568-8.742,22.076-11.164c54.438-17.55,127.033-14.617,181.932,0.165c12.101,3.263,34.692,10.39,38.821,22.678
			c0.624,1.886,0.386,2.605-3.002,6.157c-5.626,5.891-14.578,8.739-22.078,11.164c-0.686,0.219-1.396,0.399-2.077,0.612
			c-61.124-35.919-133.808-39.405-198.057-8.958c-0.764,0.363-1.424,0.785-2.039,1.227c-8.559-3.842-16.331-9.011-18.588-15.724
			C86.842,183.932,87.086,183.216,90.478,179.665z M269.055,217.572c-41.568,6.142-87.087,3.453-127.016-5.284
			C183.938,198.638,228.507,200.969,269.055,217.572z M85.709,430.192c0-0.041,0.01-0.071,0.01-0.107
			c1.257-68.923,5.548-137.831,3.087-206.722c4.987,2.689,10.105,4.936,14.93,6.792c36.96,14.216,78.325,16.071,117.481,15.143
			c1.708-0.041,3.196-0.396,4.57-0.889c33.101,1.071,67.83-0.271,98.826-12.106c3.209-1.221,6.494-2.689,9.724-4.375
			c-2.26,67.316-0.645,134.665,0.452,202.01C296.334,470.323,108.604,484.337,85.709,430.192z M358.757,333.619
			c-0.319-33.759-0.188-67.517,0.858-101.265c23.719,5.492,44.026,21.14,46.367,47.449
			C408.608,309.391,384.178,326.895,358.757,333.619z"/>
		<path d="M166.729,77.846c0.2,0.165,0.409,0.267,0.612,0.416c6.548,9.344,7.18,17.908-2.979,25.474
			c-5.228,3.89-7.874,10.275-4.291,16.379c3.021,5.159,11.133,8.201,16.374,4.296c20.291-15.112,26.583-38.285,10.681-59.48
			c-0.317-0.422-0.665-0.792-1.008-1.176c-0.63-0.982-1.389-1.944-2.46-2.844c-16.229-13.594-14.726-26.223,0-40.535
			c11.09-10.773-5.855-27.693-16.93-16.93C143.276,26.244,140.552,55.924,166.729,77.846z"/>
		<path d="M252.922,77.846c0.203,0.165,0.416,0.267,0.614,0.416c6.546,9.344,7.186,17.908-2.978,25.474
			c-5.22,3.89-7.871,10.275-4.289,16.379c3.021,5.159,11.131,8.201,16.371,4.296c20.292-15.112,26.584-38.285,10.689-59.48
			c-0.325-0.422-0.675-0.792-1.016-1.176c-0.629-0.982-1.391-1.944-2.457-2.844c-16.225-13.594-14.727-26.223,0-40.535
			c11.09-10.773-5.86-27.693-16.936-16.93C229.48,26.244,226.75,55.924,252.922,77.846z"/>
	</g>
</g>
<g>
</g>
<g>
</g>
<g>
</g>
<g>
</g>
<g>
</g>
<g>
</g>
<g>
</g>
<g>
</g>
<g>
</g>
<g>
</g>
<g>
</g>
<g>
</g>
<g>
</g>
<g>
</g>
<g>
</g>
</svg>
