<?xml version="1.0" encoding="utf-8"?>
<!-- Generator: Adobe Illustrator 21.1.0, SVG Export Plug-In . SVG Version: 6.00 Build 0)  -->
<svg version="1.1" id="Capa_1" xmlns="http://www.w3.org/2000/svg" xmlns:xlink="http://www.w3.org/1999/xlink" x="0px" y="0px"
	 viewBox="0 0 481.2 481.2" style="enable-background:new 0 0 481.2 481.2;" xml:space="preserve">
<style type="text/css">
	.st0{fill:#FFFFFF;}
</style>
<g>
	<g>
		<path d="M246.9,178.2c0.1-5.2,0.3-10.4,0.4-15.6c0-0.2,0-0.3,0-0.5c7.5-9.3,12.3-21,14.5-32.3c4.3-21.7,1-46.2-14.4-63.1
			c-19.2-21.1-49.7-15-72.5-4.3c-0.4,0.2-0.8,0.4-1.1,0.6C140.3,7.2,63.4,30.1,36.6,85.6c-0.7,0.1-1.4,0.3-2.1,0.5
			C20.1,91.5,8,99.2,1.9,113.7c-4.9,11.9,0.5,24.9,8,34.2c8.8,10.8,20.7,15.8,33.1,16.6c3.4,72.3-1.4,144.6-6.7,216.7
			c-0.1,1,0,1.9,0.1,2.7c0,3.3,1.5,6.6,5.2,8.8c57.7,33.6,133.8,28.4,191.6-2.2c1.8-0.9,3-2.1,3.9-3.4c4.6-0.8,8.4-4.2,8-10.2
			c-0.7-10.3-1.1-20.6-1.5-30.9C332.8,354,335.7,159.9,246.9,178.2z M222.3,371.8c-49.1,26-113.9,31.3-164.1,5.2
			c0.3-4.5,0.6-8.9,1-13.4c53.9,20.1,112,14.1,163-11.6c0.2,6.5,0.6,13,1,19.5C222.9,371.6,222.6,371.7,222.3,371.8z M221.6,327.7
			c-49.1,27.8-107.9,36.2-160.8,13.4c4.1-59.7,6.8-119.4,3.8-179.2c5.6-1.6,11-4,16-6.8c12.5,11.7,27.9,20.4,45.6,20.1
			c15-0.3,25.9-9.4,32.9-21.2c17.5,16.6,40,30.7,64.4,24.2c0.6-0.2,1.2-0.4,1.7-0.6C224,227.7,221,277.7,221.6,327.7z M241.3,121.6
			c-1.3,8.7-3.7,15.7-7.9,22.8c-3.6,6-9,10.8-14.5,12.7c-19.7,6.8-42.4-15-55.9-30.3c-6.9-7.8-17.2-1.2-18.1,7
			c-9.6,29.7-35.3,19.6-52.2,2.8c-3.3-5.2-11.1-8.4-17.5-3.3c-13.1,10.6-33,14.3-46.7,2.6c-14.1-12.1-2-23.7,11.8-28.8
			c0.7-0.3,1.3-0.6,1.9-0.9c4.2,1.4,8.8,0.3,11.1-5.1c17.5-41.5,82.5-76.7,105.7-19.9c3.5,8.5,13.9,8.8,18.9,4.3
			c10-5.6,20.8-10.6,32.4-11.3c7.7-0.5,14.8,1.7,19.4,5.6C240.7,89.2,243.4,107.3,241.3,121.6z M243.2,324.1
			c-0.3-41.1,1.6-82.2,3-123.3C309,182.5,304.1,332,243.2,324.1z"/>
		<path d="M85,201.6v104.9c0,14,21.6,14,21.6,0V201.6C106.6,187.6,85,187.6,85,201.6z"/>
		<path d="M132.6,205.9v104.9c0,14,21.6,14,21.6,0V205.9C154.2,191.9,132.6,191.9,132.6,205.9z"/>
		<path d="M175.9,205.9v104.9c0,14,21.6,14,21.6,0V205.9C197.5,191.9,175.9,191.9,175.9,205.9z"/>
	</g>
</g>
<g>
	<rect x="196.1" y="213.8" class="st0" width="159.4" height="240.5"/>
	<rect x="216.9" y="218.1" class="st0" width="159.4" height="246.3"/>
	<g>
		<g>
			<path d="M418.8,254.1c0.2-4.9,0.4-9.8,0.7-14.7c0.2-2.9-0.7-5.1-2.2-6.7c-5.3-13.4-20.6-21.6-33.4-26.5
				c-29.6-11.4-62.6-12.9-93.9-12.1c-1.4,0-2.6,0.3-3.7,0.7c-26.5-0.9-54.2,0.2-79,9.7c-14.2,5.4-30.6,16.6-29.2,33.9
				c0.2,2.8,0.9,5.4,1.9,7.9c3.9,61.6-0.2,123.2-1.4,184.8c-0.6,1.8-0.7,3.9,0.3,6.3c24.5,59.8,192.2,54.5,234.5,8.6
				c1.7-1.8,2.5-3.8,2.7-5.7c1.4-1.6,2.3-3.8,2.3-6.5c-0.3-19.1-0.7-38.2-0.9-57.4c32.3-6.2,58.5-29.2,57.8-63.8
				C474.9,279.8,447.9,260,418.8,254.1z M202.8,232.2c4.5-4.7,11.6-7,17.7-8.9c43.5-14,101.6-11.7,145.5,0.1
				c9.7,2.6,27.7,8.3,31,18.1c0.5,1.5,0.3,2.1-2.4,4.9c-4.5,4.7-11.7,7-17.7,8.9c-0.5,0.2-1.1,0.3-1.7,0.5
				c-48.9-28.7-107-31.5-158.4-7.2c-0.6,0.3-1.1,0.6-1.6,1c-6.8-3.1-13.1-7.2-14.9-12.6C199.9,235.7,200.1,235.1,202.8,232.2z
				 M345.6,262.6c-33.2,4.9-69.6,2.8-101.6-4.2C277.6,247.4,313.2,249.3,345.6,262.6z M199,432.6C199,432.5,199,432.5,199,432.6
				c1-55.2,4.4-110.3,2.5-165.4c4,2.2,8.1,3.9,11.9,5.4c29.6,11.4,62.6,12.9,93.9,12.1c1.4,0,2.6-0.3,3.7-0.7
				c26.5,0.9,54.2-0.2,79-9.7c2.6-1,5.2-2.2,7.8-3.5c-1.8,53.8-0.5,107.7,0.4,161.5C367.5,464.7,217.3,475.9,199,432.6z
				 M417.4,355.4c-0.3-27-0.2-54,0.7-81c19,4.4,35.2,16.9,37.1,37.9C457.2,336,437.7,350,417.4,355.4z"/>
			<path d="M263.8,150.8c0.2,0.1,0.3,0.2,0.5,0.3c5.2,7.5,5.7,14.3-2.4,20.4c-4.2,3.1-6.3,8.2-3.4,13.1c2.4,4.1,8.9,6.6,13.1,3.4
				c16.2-12.1,21.3-30.6,8.5-47.6c-0.3-0.3-0.5-0.6-0.8-0.9c-0.5-0.8-1.1-1.6-2-2.3c-13-10.9-11.8-21,0-32.4
				c8.9-8.6-4.7-22.1-13.5-13.5C245.1,109.6,242.9,133.3,263.8,150.8z"/>
			<path d="M332.7,150.8c0.2,0.1,0.3,0.2,0.5,0.3c5.2,7.5,5.7,14.3-2.4,20.4c-4.2,3.1-6.3,8.2-3.4,13.1c2.4,4.1,8.9,6.6,13.1,3.4
				c16.2-12.1,21.3-30.6,8.5-47.6c-0.3-0.3-0.5-0.6-0.8-0.9c-0.5-0.8-1.1-1.6-2-2.3c-13-10.9-11.8-21,0-32.4
				c8.9-8.6-4.7-22.1-13.5-13.5C314,109.6,311.8,133.3,332.7,150.8z"/>
		</g>
	</g>
</g>
</svg>
