<?xml version="1.0" encoding="utf-8"?>
<!-- Generator: Adobe Illustrator 21.1.0, SVG Export Plug-In . SVG Version: 6.00 Build 0)  -->
<svg version="1.1" id="Layer_1" xmlns="http://www.w3.org/2000/svg" xmlns:xlink="http://www.w3.org/1999/xlink" x="0px" y="0px"
	 viewBox="0 0 100 100" style="enable-background:new 0 0 100 100;" xml:space="preserve">
<circle cx="20.9" cy="66.2" r="6.5"/>
<path d="M31.7,5.7c0.6-0.3,1.3-0.4,2-0.5c3.8-0.4,7.1,2.4,7.5,6.2c0.4,3.8-2.4,7.2-6.1,7.5c-2.4,0.2-4.6-0.8-6-2.6
	c-1.9,1.6-4.3,6.8-8.1-0.2C25.8,20,25.6,7.8,31.7,5.7z"/>
<path d="M44,48.7l-0.4-8l7.9,5l0,0l0,0l0-0.1l2.9-2.1l-8.4-21.3l-11.2,0l-11.2,0l-8.4,21.3l3,2.1l0,0l7.9-5l-0.4,8H8.2v3h82.7v-3H44
	z M35.4,28.7l9-2.7v10l-0.8-0.6l-3.2,2.4l1.9,1.5l-6.9,2.1L35.4,28.7L35.4,28.7z M26.2,35.5l-0.8,0.6V26l9,2.7v12.8l-6.9-2.1
	l1.9-1.5L26.2,35.5z"/>
<circle cx="78.3" cy="66.2" r="6.5"/>
<polygon points="12.8,88.5 14.4,88.8 13.6,92.9 27.9,92.9 27.1,88.8 28.7,88.5 29.6,92.9 33.3,92.9 29.8,76.1 11.7,76.1 8.2,92.9 
	11.9,92.9 "/>
<polygon points="70.4,88.5 72,88.8 71.1,92.9 85.5,92.9 84.7,88.8 86.2,88.5 87.2,92.9 90.9,92.9 87.4,76.1 69.3,76.1 65.8,92.9 
	69.5,92.9 "/>
<circle cx="49.5" cy="66.2" r="6.5"/>
<polygon points="41.6,88.5 43.2,88.8 42.3,92.9 56.7,92.9 55.9,88.8 57.5,88.5 58.4,92.9 62.1,92.9 58.6,76.1 40.5,76.1 37,92.9 
	40.7,92.9 "/>
</svg>
