<?xml version="1.0" encoding="utf-8"?>
<!-- Generator: Adobe Illustrator 21.1.0, SVG Export Plug-In . SVG Version: 6.00 Build 0)  -->
<svg version="1.1" id="Layer_1" xmlns="http://www.w3.org/2000/svg" xmlns:xlink="http://www.w3.org/1999/xlink" x="0px" y="0px"
	 viewBox="0 0 100 100" style="enable-background:new 0 0 100 100;" xml:space="preserve">
<g>
	<path d="M23.7,42c1-0.4,1.6-1.5,1.2-2.6v-0.1c-0.7-1.9-1.1-3.6-1-5.1s0.6-3.1,1.4-5c0.4-0.9,0.8-1.9,1.2-3c0.4-1.2,0.9-2.6,0.9-4
		c0.1-1.4-0.1-2.8-0.6-4.1c-0.2-0.6-0.5-1.3-0.9-1.8c-0.4-0.6-0.7-1.1-1.3-1.7c-0.4-0.5-1.1-0.7-1.8-0.6c-1,0.2-1.7,1.3-1.4,2.3
		l0.2,0.7c0.1,0.2,0.2,0.7,0.3,1.1c0.1,0.4,0.2,0.8,0.2,1.2c0.1,0.8,0.1,1.6-0.1,2.3c-0.2,0.8-0.4,1.4-0.8,2.3L20,27
		c-0.4,1.1-0.9,2.2-1.2,3.4c-0.3,1.3-0.5,2.6-0.3,4c0.2,2.8,1.5,5.2,3,7C22,42,22.9,42.3,23.7,42z"/>
	<path d="M37.1,40.9c1-0.4,1.6-1.5,1.2-2.6v-0.1c-0.7-1.9-1.1-3.6-1-5.1s0.6-3.1,1.4-5c0.4-0.9,0.8-1.9,1.2-3c0.4-1.2,0.9-2.6,0.9-4
		c0.1-1.4-0.1-2.8-0.6-4.1c-0.2-0.6-0.5-1.3-0.9-1.8c-0.4-0.6-0.7-1.1-1.3-1.7c-0.3-0.5-1-0.7-1.7-0.5c-1,0.2-1.7,1.3-1.4,2.3L35,16
		c0.1,0.2,0.2,0.7,0.3,1.1s0.2,0.8,0.2,1.2c0.1,0.8,0.1,1.6-0.1,2.3c-0.2,0.8-0.4,1.4-0.8,2.3l-1.3,2.9c-0.4,1.1-0.9,2.2-1.2,3.4
		c-0.3,1.3-0.5,2.6-0.3,4c0.2,2.8,1.5,5.2,3,7C35.4,40.9,36.3,41.2,37.1,40.9z"/>
	<path d="M50.5,42c1-0.4,1.6-1.5,1.2-2.6v-0.1c-0.7-1.9-1.1-3.6-1-5.1s0.6-3.1,1.4-5c0.4-0.9,0.8-1.9,1.2-3c0.4-1.2,0.9-2.6,0.9-4
		c0.1-1.4-0.1-2.8-0.6-4.1c-0.2-0.6-0.5-1.3-0.9-1.8c-0.4-0.6-0.7-1.1-1.3-1.7c-0.4-0.5-1.1-0.7-1.8-0.6c-1,0.2-1.7,1.3-1.5,2.3
		l0.2,0.7c0.1,0.2,0.2,0.7,0.3,1.1s0.2,0.8,0.2,1.2c0.1,0.8,0.1,1.6-0.1,2.3c-0.2,0.8-0.4,1.4-0.8,2.3L46.8,27
		c-0.4,1.1-0.9,2.2-1.2,3.4c-0.3,1.3-0.5,2.6-0.3,4c0.2,2.8,1.5,5.2,3,7C48.8,42,49.7,42.3,50.5,42z"/>
	<path d="M50.1,69.5L50.1,69.5l1.4-2.3l4.3-7.4c-4.7,0.9-11.2,1.6-19.5,1.6c-16.3,0-25.9-2.8-28.1-4.5c2.2-1.7,11.8-4.5,28.1-4.5
		c10.1,0,17.7,1.1,22.5,2.3l2.9-4.9c-9.3-2.8-23-2.9-25.3-2.9c-3.5,0-33.9,0.3-33.9,10c0,1.9,1.2,3.4,3,4.6
		c1.5,11.6,9,20.4,30.9,20.4c2.4,0,4.7-0.1,6.7-0.3c0.1-0.2,0.2-0.3,0.3-0.5l6.4-11L50.1,69.5z"/>
	<path d="M96.9,43.7c-0.4-0.4-0.9-0.5-1.5-0.4l-6.7,1l4-6.3c0.5-0.7,0.4-1.7-0.3-2.3l-0.2-0.2c-0.7-0.6-1.6-0.6-2.4-0.1L84,40.1
		l0.3-6.7c0-0.5-0.2-1.1-0.6-1.4c-0.8-0.7-1.9-0.6-2.5,0.1c-0.2,0.2-0.3,0.4-0.4,0.7l-2.6,8.3c0.2,0.1,0.4,0.2,0.5,0.4l9.2,8.3
		c0.2,0.2,0.3,0.3,0.5,0.5l8-3.4C97.6,46.2,97.9,44.6,96.9,43.7z"/>
	<path d="M76.6,43.9c-2.6-2.3-6.6-1.7-8.4,1.3l-1.3,2.2l8.5,7.6c0.5,0.5,0.6,1.3,0.1,1.8l-0.6,0.6c-0.5,0.5-1.3,0.6-1.8,0.1l-8-7.2
		L54.4,68.8l4.9,4.4c0.5,0.5,0.6,1.3,0.1,1.8l-0.6,0.6c-0.5,0.5-1.3,0.6-1.8,0.1l-4.4-3.9l-6.4,11c-1.6,2.7,1.7,5.6,4.2,3.7
		l20.2-14.9l-5.7-5.1c-0.5-0.5-0.6-1.3-0.1-1.8l0.6-0.6c0.5-0.5,1.3-0.6,1.8-0.1l6.2,5.6l12-8.9c2.8-2.1,3-6.2,0.4-8.5L76.6,43.9z"
		/>
</g>
</svg>
