<?xml version="1.0" encoding="utf-8"?>
<!-- Generator: Adobe Illustrator 21.1.0, SVG Export Plug-In . SVG Version: 6.00 Build 0)  -->
<svg version="1.1" id="Layer_1" xmlns="http://www.w3.org/2000/svg" xmlns:xlink="http://www.w3.org/1999/xlink" x="0px" y="0px"
	 viewBox="0 0 64 64" style="enable-background:new 0 0 64 64;" xml:space="preserve">
<title>Drink-hot-water-coffee</title>
<g>
	<path d="M39,34h13c2.2,0,4-1.8,4-4s-1.8-4-4-4H39c-1.1,0-2-0.9-2-2s0.9-2,2-2h7c3.3,0,6-2.7,6-6h-2c0,2.2-1.8,4-4,4h-7
		c-2.2,0-4,1.8-4,4s1.8,4,4,4h13c1.1,0,2,0.9,2,2s-0.9,2-2,2H39c-3.3,0-6,2.7-6,6h2C35,35.8,36.8,34,39,34z"/>
	<path d="M32,44h16v2H32v7.3c0,3.7,3,6.7,6.7,6.7h8.5c3.7,0,6.7-3,6.7-6.7V42H32V44z M50,44h2v2h-2V44z"/>
	<path d="M56,45v7.8c1.2-0.4,2-1.5,2-2.8v-5H56z"/>
	<path d="M5,57c0,1.7,1.3,3,3,3h14c1.7,0,3-1.3,3-3v-2H5V57z"/>
	<path d="M21.4,26.9l-2.2-2.2c-0.2-0.2-0.3-0.4-0.3-0.6L17.1,8h-4.2L11,24.1c0,0.2-0.1,0.4-0.3,0.6l-2.1,2.2
		c-1.7,1.7-2.8,3.8-3.3,6.1h19.5C24.3,30.7,23.1,28.5,21.4,26.9z"/>
	<rect x="12" y="4" width="6" height="2"/>
	<circle cx="15" cy="44" r="4"/>
	<path d="M25,35H5c0,0.1,0,0.3,0,0.4V53h20V35.4C25,35.3,25,35.1,25,35z M15,50c-3.3,0-6-2.7-6-6s2.7-6,6-6s6,2.7,6,6
		C21,47.3,18.3,50,15,50z"/>
</g>
</svg>
